<?xml version="1.0" encoding="UTF-8" standalone="no"?>
<!-- Created with Inkscape (http://www.inkscape.org/) -->

<svg
   xmlns:dc="http://purl.org/dc/elements/1.1/"
   xmlns:cc="http://creativecommons.org/ns#"
   xmlns:rdf="http://www.w3.org/1999/02/22-rdf-syntax-ns#"
   xmlns:svg="http://www.w3.org/2000/svg"
   xmlns="http://www.w3.org/2000/svg"
   xmlns:sodipodi="http://sodipodi.sourceforge.net/DTD/sodipodi-0.dtd"
   xmlns:inkscape="http://www.inkscape.org/namespaces/inkscape"
   width="210mm"
   height="297mm"
   viewBox="0 0 210 297"
   version="1.1"
   id="svg8"
   inkscape:version="0.92.4 (5da689c313, 2019-01-14)"
   sodipodi:docname="tunnel.svg"
   inkscape:export-filename="C:\Users\Adam\Development\XComp\assets\tiles\tunnel.png"
   inkscape:export-xdpi="96"
   inkscape:export-ydpi="96">
  <defs
     id="defs2" />
  <sodipodi:namedview
     id="base"
     pagecolor="#ffffff"
     bordercolor="#666666"
     borderopacity="1.0"
     inkscape:pageopacity="0.0"
     inkscape:pageshadow="2"
     inkscape:zoom="5.6568543"
     inkscape:cx="85.393441"
     inkscape:cy="1036.9586"
     inkscape:document-units="mm"
     inkscape:current-layer="layer1"
     showgrid="true"
     inkscape:snap-grids="false"
     inkscape:snap-to-guides="false"
     inkscape:window-width="1920"
     inkscape:window-height="1017"
     inkscape:window-x="-8"
     inkscape:window-y="-8"
     inkscape:window-maximized="1">
    <inkscape:grid
       type="xygrid"
       id="grid815"
       spacingx="4.2333333" />
  </sodipodi:namedview>
  <metadata
     id="metadata5">
    <rdf:RDF>
      <cc:Work
         rdf:about="">
        <dc:format>image/svg+xml</dc:format>
        <dc:type
           rdf:resource="http://purl.org/dc/dcmitype/StillImage" />
        <dc:title></dc:title>
      </cc:Work>
    </rdf:RDF>
  </metadata>
  <g
     inkscape:label="Layer 1"
     inkscape:groupmode="layer"
     id="layer1">
    <rect
       style="fill:#6a6a6a;fill-opacity:1;stroke-width:0.13229167"
       id="rect4557"
       width="4.2333331"
       height="4.2333341"
       x="8.3872919"
       y="13.366668" />
    <g
       id="g4739"
       style="fill:#4d4d4d;fill-opacity:1">
      <rect
         transform="matrix(0,-1,-1,0,0,0)"
         y="-12.620625"
         x="-13.366669"
         height="4.2333341"
         width="4.2333331"
         id="rect4571"
         style="fill:#4d4d4d;fill-opacity:1;stroke-width:0.13229167" />
      <rect
         transform="matrix(0,-1,-1,0,0,0)"
         style="fill:#4d4d4d;fill-opacity:1;stroke-width:0.05727704"
         id="rect4573"
         width="0.79345447"
         height="4.2338867"
         x="-9.9267893"
         y="-12.620625" />
    </g>
    <g
       id="g4743"
       style="fill:#4d4d4d;fill-opacity:1">
      <path
         style="fill:#4d4d4d;fill-opacity:1;stroke-width:0.13229167"
         d="m 12.62061,13.366624 h 4.233336 V 9.662457 c 0,-0.205883 -0.352509,-0.529166 -0.529168,-0.529166 H 12.62061 Z"
         id="path4614"
         inkscape:connector-curvature="0"
         sodipodi:nodetypes="cccccc" />
      <path
         inkscape:connector-curvature="0"
         id="path4726"
         d="m 12.62062,9.1333344 v 0.79375 h 2.910416 c 0.176659,0 0.529168,0.3232836 0.529168,0.5291666 v 2.910417 h 0.79375 V 9.6625011 c 0,-0.2058829 -0.35251,-0.5291667 -0.529167,-0.5291667 z"
         style="fill:#4d4d4d;fill-opacity:1;stroke-width:0.13229167" />
    </g>
    <g
       id="g4749"
       transform="matrix(1,0,0,-1,0,30.966671)"
       style="fill:#4d4d4d;fill-opacity:1">
      <rect
         style="fill:#4d4d4d;fill-opacity:1;stroke-width:0.13229167"
         id="rect4745"
         width="4.2333331"
         height="4.2333341"
         x="-13.366669"
         y="-12.620625"
         transform="matrix(0,-1,-1,0,0,0)" />
      <rect
         y="-12.620625"
         x="-9.9267893"
         height="4.2338867"
         width="0.79345447"
         id="rect4747"
         style="fill:#4d4d4d;fill-opacity:1;stroke-width:0.05727704"
         transform="matrix(0,-1,-1,0,0,0)" />
    </g>
    <g
       transform="matrix(0,1,1,0,-4.9796541,4.9796521)"
       id="g4755"
       style="fill:#4d4d4d;fill-opacity:1">
      <rect
         transform="matrix(0,-1,-1,0,0,0)"
         y="-12.620625"
         x="-13.366669"
         height="4.2333341"
         width="4.2333331"
         id="rect4751"
         style="fill:#4d4d4d;fill-opacity:1;stroke-width:0.13229167" />
      <rect
         transform="matrix(0,-1,-1,0,0,0)"
         style="fill:#4d4d4d;fill-opacity:1;stroke-width:0.05727704"
         id="rect4753"
         width="0.79345447"
         height="4.2338867"
         x="-9.9267893"
         y="-12.620625" />
    </g>
    <g
       id="g4761"
       transform="rotate(90,10.503682,15.483334)"
       style="fill:#4d4d4d;fill-opacity:1">
      <rect
         style="fill:#4d4d4d;fill-opacity:1;stroke-width:0.13229167"
         id="rect4757"
         width="4.2333331"
         height="4.2333341"
         x="-13.366669"
         y="-12.620625"
         transform="matrix(0,-1,-1,0,0,0)" />
      <rect
         y="-12.620625"
         x="-9.9267893"
         height="4.2338867"
         width="0.79345447"
         id="rect4759"
         style="fill:#4d4d4d;fill-opacity:1;stroke-width:0.05727704"
         transform="matrix(0,-1,-1,0,0,0)" />
    </g>
    <g
       id="g4767"
       transform="rotate(90,10.503948,15.483313)"
       style="fill:#4d4d4d;fill-opacity:1">
      <path
         sodipodi:nodetypes="cccccc"
         inkscape:connector-curvature="0"
         id="path4763"
         d="m 12.62061,13.366624 h 4.233336 V 9.662457 c 0,-0.205883 -0.352509,-0.529166 -0.529168,-0.529166 H 12.62061 Z"
         style="fill:#4d4d4d;fill-opacity:1;stroke-width:0.13229167" />
      <path
         style="fill:#4d4d4d;fill-opacity:1;stroke-width:0.13229167"
         d="m 12.62062,9.1333344 v 0.79375 h 2.910416 c 0.176659,0 0.529168,0.3232836 0.529168,0.5291666 v 2.910417 h 0.79375 V 9.6625011 c 0,-0.2058829 -0.35251,-0.5291667 -0.529167,-0.5291667 z"
         id="path4765"
         inkscape:connector-curvature="0" />
    </g>
    <g
       transform="rotate(180,10.503952,15.483316)"
       id="g4773"
       style="fill:#4d4d4d;fill-opacity:1">
      <path
         style="fill:#4d4d4d;fill-opacity:1;stroke-width:0.13229167"
         d="m 12.62061,13.366624 h 4.233336 V 9.662457 c 0,-0.205883 -0.352509,-0.529166 -0.529168,-0.529166 H 12.62061 Z"
         id="path4769"
         inkscape:connector-curvature="0"
         sodipodi:nodetypes="cccccc" />
      <path
         inkscape:connector-curvature="0"
         id="path4771"
         d="m 12.62062,9.1333344 v 0.79375 h 2.910416 c 0.176659,0 0.529168,0.3232836 0.529168,0.5291666 v 2.910417 h 0.79375 V 9.6625011 c 0,-0.2058829 -0.35251,-0.5291667 -0.529167,-0.5291667 z"
         style="fill:#4d4d4d;fill-opacity:1;stroke-width:0.13229167" />
    </g>
    <g
       id="g4779"
       transform="rotate(-90,10.50396,15.483318)"
       style="fill:#4d4d4d;fill-opacity:1">
      <path
         sodipodi:nodetypes="cccccc"
         inkscape:connector-curvature="0"
         id="path4775"
         d="m 12.62061,13.366624 h 4.233336 V 9.662457 c 0,-0.205883 -0.352509,-0.529166 -0.529168,-0.529166 H 12.62061 Z"
         style="fill:#4d4d4d;fill-opacity:1;stroke-width:0.13229167" />
      <path
         style="fill:#4d4d4d;fill-opacity:1;stroke-width:0.13229167"
         d="m 12.62062,9.1333344 v 0.79375 h 2.910416 c 0.176659,0 0.529168,0.3232836 0.529168,0.5291666 v 2.910417 h 0.79375 V 9.6625011 c 0,-0.2058829 -0.35251,-0.5291667 -0.529167,-0.5291667 z"
         id="path4777"
         inkscape:connector-curvature="0" />
    </g>
    <g
       id="g4791"
       style="fill:#4d4d4d;fill-opacity:1">
      <rect
         style="fill:#4d4d4d;fill-opacity:1;stroke-width:0.13229167"
         id="rect4781"
         width="4.2333331"
         height="4.2333341"
         x="16.853682"
         y="-13.366944"
         transform="scale(1,-1)" />
      <rect
         y="-13.366534"
         x="20.29356"
         height="0.7934854"
         width="0.79345447"
         id="rect4783"
         style="fill:#4d4d4d;fill-opacity:1;stroke-width:0.02479593"
         transform="scale(1,-1)" />
    </g>
  </g>
</svg>
