<?xml version="1.0" encoding="UTF-8" standalone="no"?>
<!-- Created with Inkscape (http://www.inkscape.org/) -->

<svg
   xmlns:dc="http://purl.org/dc/elements/1.1/"
   xmlns:cc="http://creativecommons.org/ns#"
   xmlns:rdf="http://www.w3.org/1999/02/22-rdf-syntax-ns#"
   xmlns:svg="http://www.w3.org/2000/svg"
   xmlns="http://www.w3.org/2000/svg"
   xmlns:sodipodi="http://sodipodi.sourceforge.net/DTD/sodipodi-0.dtd"
   xmlns:inkscape="http://www.inkscape.org/namespaces/inkscape"
   width="225.56001mm"
   height="78.74028mm"
   viewBox="0 0 225.56001 78.74028"
   version="1.1"
   id="svg8"
   sodipodi:docname="countdown_go.svg"
   inkscape:version="0.92.4 (5da689c313, 2019-01-14)"
   inkscape:export-filename="C:\Users\Adam\Development\XComp\assets\images\countdown_go.png"
   inkscape:export-xdpi="96.314362"
   inkscape:export-ydpi="96.314362">
  <defs
     id="defs2">
    <filter
       inkscape:label="Black Hole"
       inkscape:menu="Morphology"
       inkscape:menu-tooltip="Creates a black light inside and outside"
       height="1.5"
       width="1.5"
       y="-0.25"
       x="-0.25"
       style="color-interpolation-filters:sRGB"
       id="filter993">
      <feGaussianBlur
         stdDeviation="5"
         in="SourceAlpha"
         result="result1"
         id="feGaussianBlur981" />
      <feComposite
         operator="arithmetic"
         k2="3.2"
         k1="-1"
         k4="-2"
         result="result3"
         in2="result1"
         id="feComposite983"
         k3="0" />
      <feColorMatrix
         values="1 0 0 0 0 0 1 0 0 0 0 0 1 0 0 0 0 0 10 0 "
         result="result2"
         id="feColorMatrix985" />
      <feComposite
         result="fbSourceGraphic"
         in="SourceGraphic"
         operator="out"
         in2="result2"
         id="feComposite987" />
      <feBlend
         mode="multiply"
         in="result1"
         in2="fbSourceGraphic"
         result="result91"
         id="feBlend989" />
      <feBlend
         mode="screen"
         in="fbSourceGraphic"
         in2="result91"
         id="feBlend991" />
    </filter>
    <filter
       inkscape:label="Blur Double"
       inkscape:menu="Blurs"
       inkscape:menu-tooltip="Overlays two copies with different blur amounts and modifiable blend and composite"
       style="color-interpolation-filters:sRGB"
       id="filter1015">
      <feGaussianBlur
         stdDeviation="5"
         result="fbSourceGraphic"
         id="feGaussianBlur1007" />
      <feGaussianBlur
         stdDeviation="0.01"
         in="SourceGraphic"
         result="result1"
         id="feGaussianBlur1009" />
      <feComposite
         in2="result1"
         operator="arithmetic"
         in="fbSourceGraphic"
         k2="0.5"
         k3="0.5"
         result="result2"
         id="feComposite1011"
         k1="0"
         k4="0" />
      <feBlend
         in2="fbSourceGraphic"
         mode="normal"
         result="result3"
         id="feBlend1013" />
    </filter>
  </defs>
  <sodipodi:namedview
     id="base"
     pagecolor="#ffffff"
     bordercolor="#666666"
     borderopacity="1.0"
     inkscape:pageopacity="0.0"
     inkscape:pageshadow="2"
     inkscape:zoom="0.49497475"
     inkscape:cx="867.91411"
     inkscape:cy="172.15742"
     inkscape:document-units="mm"
     inkscape:current-layer="layer1"
     showgrid="false"
     inkscape:window-width="1600"
     inkscape:window-height="837"
     inkscape:window-x="1912"
     inkscape:window-y="169"
     inkscape:window-maximized="1"
     inkscape:snap-to-guides="false"
     inkscape:snap-grids="false"
     fit-margin-top="0"
     fit-margin-left="0"
     fit-margin-right="0"
     fit-margin-bottom="0" />
  <metadata
     id="metadata5">
    <rdf:RDF>
      <cc:Work
         rdf:about="">
        <dc:format>image/svg+xml</dc:format>
        <dc:type
           rdf:resource="http://purl.org/dc/dcmitype/StillImage" />
        <dc:title></dc:title>
      </cc:Work>
    </rdf:RDF>
  </metadata>
  <g
     inkscape:groupmode="layer"
     id="layer2"
     inkscape:label="back"
     transform="translate(-365.78255,-253.69517)">
    <g
       style="fill:#660000;fill-opacity:0.9748744;filter:url(#filter1015)"
       id="g1001"
       transform="matrix(0.25,0,0,0.25,358.92192,219.79898)">
      <path
         id="path995"
         d="m 468.03445,288.41678 c 0,1.93186 -1.78205,4.72706 -2.08105,6.60048 -0.30193,1.89181 2.18352,9.60331 1.59396,11.42296 -0.58625,1.80941 -2.03619,4.11744 -2.88974,5.84305 -0.83909,1.69636 -4.61771,2.46236 -5.69878,4.06583 -1.05444,1.56397 -6.95067,2.09264 -8.2201,3.55715 -1.23397,1.42361 0.80254,6.0177 -0.62057,7.33711 -1.38097,1.28036 -6.66122,-1.23749 -8.20748,-0.0646 -1.50089,1.13848 5.36571,-2.91291 3.72081,-1.88419 -1.59793,0.99934 -10.46697,11.71951 -12.19007,12.60746 -1.67663,0.86399 2.65352,-5.63962 0.86826,-4.88831 -1.74009,0.73231 -4.65891,0.31336 -6.49306,0.93196 -1.78991,0.60369 -4.82587,5.00375 -6.69687,5.49297 -1.82869,0.47815 -3.15285,0.62209 -5.05108,0.98512 -1.85788,0.35531 -9.38146,4.85418 -11.29854,5.09381 -1.8777,0.2347 -3.87381,-0.61408 -5.80133,-0.49544 -1.88931,0.11628 5.91833,-0.0869 3.98772,-0.0869 -1.9306,0 -6.29224,-6.78378 -8.18155,-6.90007 -1.92752,-0.11864 -8.01239,-0.76331 -9.8901,-0.99801 -1.91707,-0.23963 -2.02367,3.79428 -3.88155,3.43897 -1.89823,-0.36303 -3.9069,1.91056 -5.73559,1.43241 -1.871,-0.48921 -1.91549,-8.2934 -3.7054,-8.89708 -1.83415,-0.61861 -1.33956,7.13956 -3.07965,6.40726 -1.78526,-0.75132 -8.54031,-6.88901 -10.21694,-7.753 -1.7231,-0.88794 2.65297,-4.43643 1.05504,-5.43578 -1.6449,-1.02872 -7.54944,4.9735 -9.05032,3.83501 -1.54626,-1.1729 -5.47968,-4.7563 -6.86066,-6.03665 -1.42311,-1.31942 -4.39252,-6.25973 -5.62649,-7.68334 -1.26942,-1.46451 6.00089,4.57189 4.94645,3.00792 -1.08107,-1.60347 -2.82092,-12.28495 -3.66001,-13.98131 -0.85355,-1.72561 -3.78683,-3.34499 -4.37307,-5.15441 -0.58957,-1.81965 -6.15956,-2.28667 -6.4615,-4.17848 -0.29899,-1.87342 0.95806,2.26633 0.95806,0.33447 0,-0.86302 0.0431,-9.00662 0.10527,-9.86414 0.0623,-0.85919 0.3962,2.9915 0.51994,2.13946 0.12362,-0.85122 3.27929,-1.32186 3.46334,-2.16433 0.18333,-0.83918 -3.12097,-4.72321 -2.87859,-5.55211 0.24083,-0.82359 4.27806,0.71645 4.57629,-0.0954 0.29534,-0.80399 0.66673,-2.44142 1.01749,-3.23238 0.34701,-0.7825 -4.81337,1.05865 -4.41295,0.29037 0.39536,-0.75858 2.63505,-2.14465 3.08167,-2.88794 0.44031,-0.73279 1.90508,-1.73789 2.39443,-2.45445 0.48177,-0.70546 5.55677,-1.07304 6.08532,-1.76145 0.52036,-0.67773 -6.90278,-4.58528 -6.33779,-5.24524 0.55514,-0.64847 1.69199,-2.82877 2.28955,-3.45889 0.58727,-0.61927 5.77635,6.64841 6.40396,6.04798 0.61666,-0.58998 2.67108,-3.89359 3.32608,-4.46432 0.64327,-0.5605 2.72327,-7.51031 3.40294,-8.05124 0.66783,-0.53151 -0.64496,2.87701 0.0575,2.36536 0.84411,-0.61485 1.60615,-1.11152 2.48943,-1.68992 0.87385,-0.57222 -3.38006,2.12359 -2.47007,1.58771 0.90026,-0.53016 6.12779,-7.5393 7.06129,-8.03325 0.92352,-0.48867 2.568,6.6463 3.522,6.19369 0.94404,-0.44788 0.84229,-0.50844 1.81417,-0.9204 0.96243,-0.40797 4.66686,-9.72514 5.65465,-10.09729 0.9782,-0.36854 -5.24749,-1.17275 -4.24632,-1.5056 0.99242,-0.32994 9.05641,-0.67252 10.06957,-0.96684 1.00441,-0.29178 1.7411,7.27194 2.76411,7.01571 1.01505,-0.25424 3.63138,-2.46014 4.66299,-2.67886 1.02359,-0.21702 1.2702,-2.60171 2.30839,-2.78324 1.03112,-0.1803 -1.82027,-2.50859 -0.77642,-2.65337 1.037,-0.14384 5.36039,-0.77169 6.40833,-0.88 1.04181,-0.10766 0.43251,8.67061 1.48352,8.59855 1.04487,-0.0716 4.56698,-3.33518 5.61422,-3.29939 1.05238,0.036 1.22625,-5.21525 2.27111,-5.14361 1.05101,0.0721 4.06221,3.44872 5.10402,3.55638 1.04794,0.10831 6.83102,2.5936 7.86803,2.73744 1.04385,0.14479 -6.14034,-5.1563 -5.10922,-4.97601 1.03819,0.18153 8.25556,2.59616 9.27915,2.81318 1.03161,0.21872 2.13126,-1.90464 3.14631,-1.6504 1.02301,0.25623 2.58733,5.91573 3.59175,6.20751 1.01315,0.29432 -2.67679,-0.29904 -1.68437,0.0309 1.00117,0.33285 9.58834,3.79124 10.56653,4.15977 0.98779,0.37216 -6.55479,-8.13803 -5.59236,-7.73006 0.97188,0.41196 8.50711,10.3195 9.45115,10.76739 0.954,0.4526 -4.60059,-4.57319 -3.67706,-4.08453 0.9335,0.49395 7.37484,1.7351 8.2751,2.26525 0.90999,0.53589 -2.42797,5.78047 -1.55412,6.3527 0.88328,0.5784 2.68874,-2.16849 3.53285,-1.55363 0.70243,0.51165 -2.15767,2.99326 -1.48985,3.52476 0.67968,0.54093 7.86755,-6.36024 8.51082,-5.79973 0.655,0.57072 4.41015,1.19557 5.02682,1.78554 0.6276,0.60044 -3.9014,8.79087 -3.31413,9.41014 0.59757,0.63013 -1.59512,1.43434 -1.03997,2.0828 0.56499,0.65996 6.21742,-6.54096 6.73777,-5.86323 0.52855,0.68841 -0.66698,9.96913 -0.18522,10.67458 0.48936,0.71656 5.48061,-7.71966 5.92092,-6.98687 0.44662,0.74329 -6.14401,9.98282 -5.74865,10.7414 0.40042,0.76828 0.20957,-6.18525 0.55658,-5.40275 0.35077,0.79096 -1.29009,9.15916 -0.99475,9.96315 0.29823,0.81187 3.37986,-4.95014 3.62069,-4.12654 0.24238,0.8289 -0.85221,-0.0463 -0.66887,0.79288 0.18405,0.84247 3.94107,10.272 4.06469,11.12322 0.12374,0.85204 4.24967,2.65111 4.31194,3.51031 0.0622,0.85751 -7.73124,-5.59332 -7.73124,-4.7303 0,3.02118 -1.78652,2.39924 -1.13895,3.40615 1.32784,2.06468 6.35813,3.02913 7.32381,0.77225 1.12423,-2.62743 -7.61032,-2.89764 -6.53768,-5.54655 0.28318,-0.69931 1.7236,-0.38292 2.2585,0.14916 1.61174,1.6032 -1.69815,6.17048 0.4855,6.80264 0.1845,0.0534 0.15043,-0.44666 0.34173,-0.46396 0.8291,-0.075 1.18586,2.25407 1.81799,1.71237 2.63493,-2.25804 -8.55247,-6.35267 -5.89302,-8.58179 1.83875,-1.54122 4.8959,2.66064 5.13041,5.04839 0.0358,0.36445 -0.86225,0.63516 -0.61818,0.90816 0.87701,0.98096 2.61398,-2.82468 3.49067,-1.84343 1.37321,1.53699 -4.9504,3.66214 -3.48267,5.10913 1.1068,1.09116 4.17032,-1.16775 3.81498,-2.68082 -0.42612,-1.81451 -4.95295,0.93067 -5.52781,-0.84234 -0.34714,-1.07066 3.05587,-1.45266 2.40452,-2.37057 -1.08844,-1.53384 -5.06583,2.4847 -5.06583,2.4847"
         style="opacity:1;fill:#660000;fill-opacity:0.9748744;stroke-width:0.20423284"
         inkscape:connector-curvature="0"
         sodipodi:nodetypes="csssssssssssssssssssssssssssssssssssssssssssssssssssssssssssssssssssssssssssssssssssssssssssssssssssssssssssssc" />
      <path
         id="path997"
         d="m 579.63348,293.59685 c 0,1.93186 6.59544,2.09632 6.29645,3.96974 -0.30194,1.89181 -3.16345,4.68698 -3.75301,6.50663 -0.58625,1.80941 -5.11174,2.68916 -5.96529,4.41477 -0.83909,1.69636 4.16329,8.16378 3.08222,9.76724 -1.05444,1.56398 -5.41688,-5.53062 -6.68631,-4.06611 -1.23397,1.42361 -2.73547,6.75077 -4.15858,8.07019 -1.38098,1.28035 -2.39818,-1.39338 -3.94444,-0.22047 -1.50089,1.13849 -8.48147,3.84641 -10.12637,4.87513 -1.59794,0.99935 -0.11471,2.58337 -1.83781,3.47132 -1.67663,0.86399 -1.45304,8.20158 -3.2383,8.95289 -1.74009,0.73231 -3.92962,-0.42372 -5.76377,0.19488 -1.78991,0.60368 -6.66847,0.53165 -8.53947,1.02086 -1.82869,0.47815 2.08385,0.29611 0.18562,0.65913 -1.85788,0.35532 -7.12772,-4.75201 -9.04479,-4.51238 -1.87771,0.2347 -0.0224,0.50911 -1.94989,0.62774 -1.88931,0.11629 -6.28469,7.53843 -8.21529,7.53843 -1.93061,0 -1.76881,-4.2085 -3.65812,-4.32479 -1.92752,-0.11864 -11.035,3.79887 -12.91271,3.56417 -1.91707,-0.23962 -0.32969,-4.77089 -2.18757,-5.1262 -1.89823,-0.36303 -5.48913,3.97799 -7.31782,3.49984 -1.871,-0.48921 -4.89706,0.22272 -6.68698,-0.38097 -1.83415,-0.6186 -1.19902,-5.50088 -2.93911,-6.23319 -1.78526,-0.75131 1.92321,-6.21132 0.24658,-7.07531 -1.72311,-0.88794 -12.6846,1.10013 -14.28254,0.10079 -1.6449,-1.02872 -3.37154,-1.19338 -4.87242,-2.33187 -1.54627,-1.17291 0.35683,-7.07079 -1.02414,-8.35114 -1.42311,-1.31942 -1.57243,-2.40343 -2.8064,-3.82704 -1.26942,-1.4645 -1.42936,6.6476 -2.4838,5.08363 -1.08107,-1.60347 -3.14106,-6.08842 -3.98015,-7.78479 -0.85355,-1.7256 -1.07428,-4.67691 -1.66053,-6.48632 -0.58956,-1.81965 -6.33897,-2.09013 -6.6409,-3.98194 -0.299,-1.87342 9.21162,-4.56596 9.21162,-6.49782 0,-1.93186 -2.22854,-2.08553 -1.92955,-3.95896 0.30193,-1.89181 -5.55208,-11.90851 -4.96252,-13.72816 0.58625,-1.80942 8.46246,3.25279 9.31601,1.52719 0.83909,-1.69637 -1.73961,-9.99962 -0.65854,-11.60309 1.05444,-1.56397 6.12379,4.67724 7.39322,3.21273 1.23397,-1.42361 -4.55922,-10.94682 -3.13611,-12.26624 1.38098,-1.28035 6.59802,5.93589 8.14428,4.76298 1.50088,-1.13848 -0.71583,-8.14571 0.92907,-9.17443 1.59793,-0.99935 10.715,4.57539 12.43811,3.68744 1.67663,-0.86399 3.38623,-3.02279 5.17149,-3.77411 1.74009,-0.7323 -3.48029,-6.12273 -1.64614,-6.74133 1.78991,-0.60369 8.06267,-0.58185 9.93367,-1.07107 1.82869,-0.47815 7.26611,-0.48694 9.16434,-0.84997 1.85788,-0.35531 -1.01939,4.65929 0.89768,4.41966 1.8777,-0.2347 -1.00262,-3.84083 0.9249,-3.95947 1.88931,-0.11628 12.09229,-0.79815 14.0229,-0.79815 1.05312,0 -1.40723,1.04824 -0.35999,1.08403 1.05238,0.036 2.97062,-0.73431 4.01549,-0.66267 1.051,0.0721 3.34006,-0.53388 4.38187,-0.42621 1.04794,0.1083 -4.48156,2.41285 -3.44455,2.55669 1.04385,0.14479 2.02496,0.0748 3.05608,0.25513 1.03819,0.18153 10.30832,-5.18409 11.3319,-4.96708 1.03162,0.21872 2.15222,7.48671 3.16727,7.74095 1.02301,0.25624 1.90635,-4.83497 2.91076,-4.54319 1.01316,0.29432 -5.34368,3.91059 -4.35127,4.24053 1.00117,0.33285 9.37825,3.48499 10.35644,3.85353 0.98779,0.37215 -4.01585,-3.48156 -3.05341,-3.07359 0.97188,0.41196 5.73814,-0.82096 6.68218,-0.37308 0.954,0.45261 -3.05683,0.73008 -2.13331,1.21875 0.93351,0.49395 2.7567,7.5225 3.65696,8.05266 0.90999,0.53588 0.0369,-2.8595 0.91078,-2.28727 0.88328,0.5784 3.61536,-0.86148 4.45947,-0.24663 0.70243,0.51165 0.83192,3.08305 1.49975,3.61456 0.67967,0.54093 -0.0474,5.27821 0.59585,5.83872 0.655,0.57072 4.59416,-5.27348 5.21082,-4.68351 0.62761,0.60044 0.54013,7.73919 1.1274,8.35845 0.59757,0.63013 1.72442,-0.90203 2.27957,-0.25357 0.56499,0.65996 -0.88775,-3.34898 -0.3674,-2.67126 0.52856,0.68841 8.64234,7.38308 9.1241,8.08853 0.48935,0.71656 1.51826,-7.44121 1.95858,-6.70842 0.44662,0.74329 -3.86281,5.43906 -3.46744,6.19765 0.40041,0.76827 -3.38674,5.96796 -3.03973,6.75046 0.35076,0.79096 1.56983,-6.10364 1.86516,-5.29966 0.29824,0.81188 4.92456,1.37072 5.16539,2.19432 0.24238,0.82889 -0.64612,9.40415 -0.46279,10.24333 0.18405,0.84247 2.31454,0.46266 2.43816,1.31387 0.12374,0.85205 1.80805,-4.92456 1.87032,-4.06537 0.0621,0.85752 -4.55332,4.43484 -3.69208,4.49034 0,0 1.29459,-0.36572 1.43907,0.0927 0.71266,2.26134 -7.02413,2.58494 -5.55333,4.44459 1.6026,2.02628 3.65845,-5.59779 6.10655,-4.77258 1.7303,0.58326 2.73462,4.05888 1.39323,5.29775 -1.29578,1.19673 -3.6957,-0.55437 -4.99464,-1.74767 -1.4698,-1.35027 -4.1026,-4.34681 -2.44871,-5.46402 1.49773,-1.01172 2.38356,5.07302 3.76243,3.90448 0.18965,-0.16072 -0.41452,-0.35183 -0.44488,-0.59856 -0.12128,-0.9857 0.15686,-2.64777 1.14464,-2.75075 1.68811,-0.17599 3.8169,2.77872 2.88376,4.19643 -1.29492,1.96735 -4.90557,-2.57448 -6.93118,-1.37273 -0.8143,0.4831 -1.4983,2.01871 -0.85123,2.70991 1.79293,1.9152 6.36808,-4.14905 7.64774,-1.85884 1.17054,2.09491 -3.16249,6.4619 -5.11478,5.0664 -2.23592,-1.59824 4.95297,-5.0317 3.59407,-7.42066 -0.66276,-1.16516 -4.00673,-0.34303 -4.00673,-0.34303"
         style="opacity:1;fill:#660000;fill-opacity:0.9748744;stroke-width:0.20423284"
         inkscape:connector-curvature="0"
         sodipodi:nodetypes="csssssssssssssssssssssssssssssssssssssssssssssssssssssssssssssssssssssssssssssssssssssssssssssssc" />
      <path
         id="path999"
         d="m 624.13935,300.32292 c -0.12685,1.15854 4.54865,5.59323 4.36041,6.71768 -0.19271,1.15112 -4.52847,2.8978 -4.78263,4.00882 -0.26039,1.13828 -4.53059,-1.84499 -4.85237,-0.7535 -0.3307,1.12175 2.1584,5.36983 1.76623,6.43705 -0.40381,1.09893 -2.2498,-4.56478 -2.71512,-3.52923 -0.48056,1.06947 -2.25675,4.84809 -2.79886,5.84385 -0.5613,1.03103 7.21088,6.28769 6.58807,7.23291 -0.64699,0.98193 -8.10974,-6.4652 -8.81807,-5.58346 -0.73692,0.91732 1.71297,1.75331 0.9153,2.55367 -0.83107,0.83386 -0.0383,8.62458 -0.92891,9.32183 -0.92491,0.72409 -5.41249,-1.98703 -6.39448,-1.42111 -1.01317,0.58389 -4.68391,2.51998 -5.74995,2.92358 -1.08507,0.41081 0.16879,3.65095 -0.96269,3.86231 -1.12707,0.21054 -3.84856,-2.96624 -5.0133,-2.96624 -1.16474,0 2.81885,3.35671 1.69178,3.14617 -1.13148,-0.21137 -4.36811,-7.04193 -5.45319,-7.45274 -1.06604,-0.4036 -6.3204,3.59016 -7.33356,3.00627 -0.982,-0.56592 0.55072,-4.09537 -0.37419,-4.81946 -0.89064,-0.69725 -5.28623,-0.7107 -6.1173,-1.54456 -0.79767,-0.80036 2.54237,-2.78738 1.80545,-3.7047 -0.70834,-0.88174 -4.0873,0.95093 -4.73429,-0.031 -0.6228,-0.94523 -2.4778,0.77525 -3.03911,-0.25578 -0.5421,-0.99576 3.91196,-10.41303 3.4314,-11.4825 -0.46532,-1.03554 2.74693,3.86448 2.34312,2.76556 -0.39217,-1.06722 -9.39743,-7.00715 -9.72813,-8.1289 -0.32178,-1.09149 7.0307,4.86656 6.77031,3.72828 -0.25416,-1.11102 -2.41588,-4.03341 -2.60859,-5.18453 -0.18824,-1.12445 -5.57745,0.65032 -5.7043,-0.50822 -0.12422,-1.13449 6.03083,-7.60611 5.96807,-8.76937 -0.0615,-1.14077 0.50509,-4.05279 0.50509,-5.21754 0,-1.16475 -3.08536,-3.71338 -3.02381,-4.85415 0.0628,-1.16326 -2.02942,-0.46982 -1.9052,-1.60431 0.12685,-1.15855 2.84098,-2.58951 3.02923,-3.71396 0.1927,-1.15112 0.31152,-0.58258 0.56567,-1.69359 0.26039,-1.13829 2.00318,-1.09487 2.32496,-2.18636 0.3307,-1.12174 -2.45476,-3.55858 -2.06259,-4.6258 0.40382,-1.09893 0.49147,-0.0241 0.95678,-1.05969 0.48056,-1.06947 5.31753,-3.40659 5.85964,-4.40234 0.5613,-1.03103 3.80501,-4.39024 4.42782,-5.33546 0.64699,-0.98193 -3.8041,-1.2799 -3.09576,-2.16165 0.73692,-0.91732 5.75331,4.41258 6.55098,3.61222 0.83108,-0.83387 -6.85926,-1.86789 -5.96862,-2.56514 0.92491,-0.72408 4.60853,-5.68564 5.59052,-6.25157 1.01317,-0.58389 2.64367,-4.30453 3.70971,-4.70814 1.08508,-0.41081 2.04143,1.52728 3.17291,1.31592 1.12707,-0.21054 5.26314,-1.03251 6.42789,-1.03251 0.50432,0 -5.11419,5.68267 -4.6132,5.72385 0.501,0.0412 10.49234,-3.98312 10.98901,-3.9014 0.49522,0.0815 -2.25751,-1.47367 -1.76759,-1.3525 0.4861,0.12023 1.64358,-2.35676 2.12351,-2.19806 0.47473,0.15698 1.17561,6.03529 1.64335,6.22932 0.46139,0.1914 -0.5357,-2.26199 -0.082,-2.03511 0.4462,0.22314 -0.38678,0.54529 0.0338,0.82923 0.41257,0.27851 6.44681,0.84997 6.85015,1.15877 0.39553,0.30282 0.90572,6.60332 1.29164,6.93482 0.37734,0.32413 -3.12561,-7.31184 -2.75814,-6.96072 0.35967,0.34366 1.49812,4.15905 1.83,4.54432 0.32482,0.37707 0.73255,6.75343 1.04699,7.15316 0.30776,0.39122 -0.43437,-7.01314 -0.13709,-6.60054 0.29097,0.40383 0.23443,3.55755 0.51487,3.98155 0.35587,0.53803 5.89221,3.40508 6.22657,3.96857 0.32916,0.55474 -1.78407,-1.82063 -1.47616,-1.24265 0.30344,0.56957 -2.90384,1.82326 -2.62142,2.41401 0.27859,0.58273 -0.69227,0.0846 -0.4345,0.68661 0.25403,0.59328 0.86535,5.32948 1.09882,5.94022 0.23075,0.60362 0.0141,-2.60507 0.22439,-1.98562 0.20788,0.61224 7.723,0.40554 7.91061,1.03207 0.18542,0.61922 0.70273,0.777 0.86804,1.40905 0.16371,0.6259 -7.25628,5.90728 -7.1126,6.54465 0.14228,0.63118 8.42561,1.1251 8.54796,1.76645 0.12128,0.63573 -3.22719,-2.50542 -3.12578,-1.86074 0.10061,0.63967 -0.20679,2.91288 -0.12602,3.56034 0.0802,0.64243 -3.82624,11.95146 -4.3425,11.42783 -1.82695,-1.85302 0.79061,-9.28866 -0.16933,-7.08005"
         style="opacity:1;fill:#660000;fill-opacity:0.9748744;stroke-width:0.12162673"
         inkscape:connector-curvature="0"
         sodipodi:nodetypes="csssssssssssssssssssssssssssssssssssssssssssssssssssssssssssssssssssssssssc" />
    </g>
    <g
       id="g971"
       style="fill:#660000;fill-opacity:0.9748744"
       transform="matrix(0.25,0,0,0.25,358.92192,219.79898)">
      <path
         sodipodi:nodetypes="csssssssssssssssssssssssssssssssssssssssssssssssssssssssssssssssssssssssssssssssssssssssssssssssssssssssssssssc"
         inkscape:connector-curvature="0"
         style="opacity:1;fill:#660000;fill-opacity:0.9748744;stroke-width:0.20423284"
         d="m 468.03445,288.41678 c 0,1.93186 -1.78205,4.72706 -2.08105,6.60048 -0.30193,1.89181 2.18352,9.60331 1.59396,11.42296 -0.58625,1.80941 -2.03619,4.11744 -2.88974,5.84305 -0.83909,1.69636 -4.61771,2.46236 -5.69878,4.06583 -1.05444,1.56397 -6.95067,2.09264 -8.2201,3.55715 -1.23397,1.42361 0.80254,6.0177 -0.62057,7.33711 -1.38097,1.28036 -6.66122,-1.23749 -8.20748,-0.0646 -1.50089,1.13848 5.36571,-2.91291 3.72081,-1.88419 -1.59793,0.99934 -10.46697,11.71951 -12.19007,12.60746 -1.67663,0.86399 2.65352,-5.63962 0.86826,-4.88831 -1.74009,0.73231 -4.65891,0.31336 -6.49306,0.93196 -1.78991,0.60369 -4.82587,5.00375 -6.69687,5.49297 -1.82869,0.47815 -3.15285,0.62209 -5.05108,0.98512 -1.85788,0.35531 -9.38146,4.85418 -11.29854,5.09381 -1.8777,0.2347 -3.87381,-0.61408 -5.80133,-0.49544 -1.88931,0.11628 5.91833,-0.0869 3.98772,-0.0869 -1.9306,0 -6.29224,-6.78378 -8.18155,-6.90007 -1.92752,-0.11864 -8.01239,-0.76331 -9.8901,-0.99801 -1.91707,-0.23963 -2.02367,3.79428 -3.88155,3.43897 -1.89823,-0.36303 -3.9069,1.91056 -5.73559,1.43241 -1.871,-0.48921 -1.91549,-8.2934 -3.7054,-8.89708 -1.83415,-0.61861 -1.33956,7.13956 -3.07965,6.40726 -1.78526,-0.75132 -8.54031,-6.88901 -10.21694,-7.753 -1.7231,-0.88794 2.65297,-4.43643 1.05504,-5.43578 -1.6449,-1.02872 -7.54944,4.9735 -9.05032,3.83501 -1.54626,-1.1729 -5.47968,-4.7563 -6.86066,-6.03665 -1.42311,-1.31942 -4.39252,-6.25973 -5.62649,-7.68334 -1.26942,-1.46451 6.00089,4.57189 4.94645,3.00792 -1.08107,-1.60347 -2.82092,-12.28495 -3.66001,-13.98131 -0.85355,-1.72561 -3.78683,-3.34499 -4.37307,-5.15441 -0.58957,-1.81965 -6.15956,-2.28667 -6.4615,-4.17848 -0.29899,-1.87342 0.95806,2.26633 0.95806,0.33447 0,-0.86302 0.0431,-9.00662 0.10527,-9.86414 0.0623,-0.85919 0.3962,2.9915 0.51994,2.13946 0.12362,-0.85122 3.27929,-1.32186 3.46334,-2.16433 0.18333,-0.83918 -3.12097,-4.72321 -2.87859,-5.55211 0.24083,-0.82359 4.27806,0.71645 4.57629,-0.0954 0.29534,-0.80399 0.66673,-2.44142 1.01749,-3.23238 0.34701,-0.7825 -4.81337,1.05865 -4.41295,0.29037 0.39536,-0.75858 2.63505,-2.14465 3.08167,-2.88794 0.44031,-0.73279 1.90508,-1.73789 2.39443,-2.45445 0.48177,-0.70546 5.55677,-1.07304 6.08532,-1.76145 0.52036,-0.67773 -6.90278,-4.58528 -6.33779,-5.24524 0.55514,-0.64847 1.69199,-2.82877 2.28955,-3.45889 0.58727,-0.61927 5.77635,6.64841 6.40396,6.04798 0.61666,-0.58998 2.67108,-3.89359 3.32608,-4.46432 0.64327,-0.5605 2.72327,-7.51031 3.40294,-8.05124 0.66783,-0.53151 -0.64496,2.87701 0.0575,2.36536 0.84411,-0.61485 1.60615,-1.11152 2.48943,-1.68992 0.87385,-0.57222 -3.38006,2.12359 -2.47007,1.58771 0.90026,-0.53016 6.12779,-7.5393 7.06129,-8.03325 0.92352,-0.48867 2.568,6.6463 3.522,6.19369 0.94404,-0.44788 0.84229,-0.50844 1.81417,-0.9204 0.96243,-0.40797 4.66686,-9.72514 5.65465,-10.09729 0.9782,-0.36854 -5.24749,-1.17275 -4.24632,-1.5056 0.99242,-0.32994 9.05641,-0.67252 10.06957,-0.96684 1.00441,-0.29178 1.7411,7.27194 2.76411,7.01571 1.01505,-0.25424 3.63138,-2.46014 4.66299,-2.67886 1.02359,-0.21702 1.2702,-2.60171 2.30839,-2.78324 1.03112,-0.1803 -1.82027,-2.50859 -0.77642,-2.65337 1.037,-0.14384 5.36039,-0.77169 6.40833,-0.88 1.04181,-0.10766 0.43251,8.67061 1.48352,8.59855 1.04487,-0.0716 4.56698,-3.33518 5.61422,-3.29939 1.05238,0.036 1.22625,-5.21525 2.27111,-5.14361 1.05101,0.0721 4.06221,3.44872 5.10402,3.55638 1.04794,0.10831 6.83102,2.5936 7.86803,2.73744 1.04385,0.14479 -6.14034,-5.1563 -5.10922,-4.97601 1.03819,0.18153 8.25556,2.59616 9.27915,2.81318 1.03161,0.21872 2.13126,-1.90464 3.14631,-1.6504 1.02301,0.25623 2.58733,5.91573 3.59175,6.20751 1.01315,0.29432 -2.67679,-0.29904 -1.68437,0.0309 1.00117,0.33285 9.58834,3.79124 10.56653,4.15977 0.98779,0.37216 -6.55479,-8.13803 -5.59236,-7.73006 0.97188,0.41196 8.50711,10.3195 9.45115,10.76739 0.954,0.4526 -4.60059,-4.57319 -3.67706,-4.08453 0.9335,0.49395 7.37484,1.7351 8.2751,2.26525 0.90999,0.53589 -2.42797,5.78047 -1.55412,6.3527 0.88328,0.5784 2.68874,-2.16849 3.53285,-1.55363 0.70243,0.51165 -2.15767,2.99326 -1.48985,3.52476 0.67968,0.54093 7.86755,-6.36024 8.51082,-5.79973 0.655,0.57072 4.41015,1.19557 5.02682,1.78554 0.6276,0.60044 -3.9014,8.79087 -3.31413,9.41014 0.59757,0.63013 -1.59512,1.43434 -1.03997,2.0828 0.56499,0.65996 6.21742,-6.54096 6.73777,-5.86323 0.52855,0.68841 -0.66698,9.96913 -0.18522,10.67458 0.48936,0.71656 5.48061,-7.71966 5.92092,-6.98687 0.44662,0.74329 -6.14401,9.98282 -5.74865,10.7414 0.40042,0.76828 0.20957,-6.18525 0.55658,-5.40275 0.35077,0.79096 -1.29009,9.15916 -0.99475,9.96315 0.29823,0.81187 3.37986,-4.95014 3.62069,-4.12654 0.24238,0.8289 -0.85221,-0.0463 -0.66887,0.79288 0.18405,0.84247 3.94107,10.272 4.06469,11.12322 0.12374,0.85204 4.24967,2.65111 4.31194,3.51031 0.0622,0.85751 -7.73124,-5.59332 -7.73124,-4.7303 0,3.02118 -1.78652,2.39924 -1.13895,3.40615 1.32784,2.06468 6.35813,3.02913 7.32381,0.77225 1.12423,-2.62743 -7.61032,-2.89764 -6.53768,-5.54655 0.28318,-0.69931 1.7236,-0.38292 2.2585,0.14916 1.61174,1.6032 -1.69815,6.17048 0.4855,6.80264 0.1845,0.0534 0.15043,-0.44666 0.34173,-0.46396 0.8291,-0.075 1.18586,2.25407 1.81799,1.71237 2.63493,-2.25804 -8.55247,-6.35267 -5.89302,-8.58179 1.83875,-1.54122 4.8959,2.66064 5.13041,5.04839 0.0358,0.36445 -0.86225,0.63516 -0.61818,0.90816 0.87701,0.98096 2.61398,-2.82468 3.49067,-1.84343 1.37321,1.53699 -4.9504,3.66214 -3.48267,5.10913 1.1068,1.09116 4.17032,-1.16775 3.81498,-2.68082 -0.42612,-1.81451 -4.95295,0.93067 -5.52781,-0.84234 -0.34714,-1.07066 3.05587,-1.45266 2.40452,-2.37057 -1.08844,-1.53384 -5.06583,2.4847 -5.06583,2.4847"
         id="path839" />
      <path
         sodipodi:nodetypes="csssssssssssssssssssssssssssssssssssssssssssssssssssssssssssssssssssssssssssssssssssssssssssssssc"
         inkscape:connector-curvature="0"
         style="opacity:1;fill:#660000;fill-opacity:0.9748744;stroke-width:0.20423284"
         d="m 579.63348,293.59685 c 0,1.93186 6.59544,2.09632 6.29645,3.96974 -0.30194,1.89181 -3.16345,4.68698 -3.75301,6.50663 -0.58625,1.80941 -5.11174,2.68916 -5.96529,4.41477 -0.83909,1.69636 4.16329,8.16378 3.08222,9.76724 -1.05444,1.56398 -5.41688,-5.53062 -6.68631,-4.06611 -1.23397,1.42361 -2.73547,6.75077 -4.15858,8.07019 -1.38098,1.28035 -2.39818,-1.39338 -3.94444,-0.22047 -1.50089,1.13849 -8.48147,3.84641 -10.12637,4.87513 -1.59794,0.99935 -0.11471,2.58337 -1.83781,3.47132 -1.67663,0.86399 -1.45304,8.20158 -3.2383,8.95289 -1.74009,0.73231 -3.92962,-0.42372 -5.76377,0.19488 -1.78991,0.60368 -6.66847,0.53165 -8.53947,1.02086 -1.82869,0.47815 2.08385,0.29611 0.18562,0.65913 -1.85788,0.35532 -7.12772,-4.75201 -9.04479,-4.51238 -1.87771,0.2347 -0.0224,0.50911 -1.94989,0.62774 -1.88931,0.11629 -6.28469,7.53843 -8.21529,7.53843 -1.93061,0 -1.76881,-4.2085 -3.65812,-4.32479 -1.92752,-0.11864 -11.035,3.79887 -12.91271,3.56417 -1.91707,-0.23962 -0.32969,-4.77089 -2.18757,-5.1262 -1.89823,-0.36303 -5.48913,3.97799 -7.31782,3.49984 -1.871,-0.48921 -4.89706,0.22272 -6.68698,-0.38097 -1.83415,-0.6186 -1.19902,-5.50088 -2.93911,-6.23319 -1.78526,-0.75131 1.92321,-6.21132 0.24658,-7.07531 -1.72311,-0.88794 -12.6846,1.10013 -14.28254,0.10079 -1.6449,-1.02872 -3.37154,-1.19338 -4.87242,-2.33187 -1.54627,-1.17291 0.35683,-7.07079 -1.02414,-8.35114 -1.42311,-1.31942 -1.57243,-2.40343 -2.8064,-3.82704 -1.26942,-1.4645 -1.42936,6.6476 -2.4838,5.08363 -1.08107,-1.60347 -3.14106,-6.08842 -3.98015,-7.78479 -0.85355,-1.7256 -1.07428,-4.67691 -1.66053,-6.48632 -0.58956,-1.81965 -6.33897,-2.09013 -6.6409,-3.98194 -0.299,-1.87342 9.21162,-4.56596 9.21162,-6.49782 0,-1.93186 -2.22854,-2.08553 -1.92955,-3.95896 0.30193,-1.89181 -5.55208,-11.90851 -4.96252,-13.72816 0.58625,-1.80942 8.46246,3.25279 9.31601,1.52719 0.83909,-1.69637 -1.73961,-9.99962 -0.65854,-11.60309 1.05444,-1.56397 6.12379,4.67724 7.39322,3.21273 1.23397,-1.42361 -4.55922,-10.94682 -3.13611,-12.26624 1.38098,-1.28035 6.59802,5.93589 8.14428,4.76298 1.50088,-1.13848 -0.71583,-8.14571 0.92907,-9.17443 1.59793,-0.99935 10.715,4.57539 12.43811,3.68744 1.67663,-0.86399 3.38623,-3.02279 5.17149,-3.77411 1.74009,-0.7323 -3.48029,-6.12273 -1.64614,-6.74133 1.78991,-0.60369 8.06267,-0.58185 9.93367,-1.07107 1.82869,-0.47815 7.26611,-0.48694 9.16434,-0.84997 1.85788,-0.35531 -1.01939,4.65929 0.89768,4.41966 1.8777,-0.2347 -1.00262,-3.84083 0.9249,-3.95947 1.88931,-0.11628 12.09229,-0.79815 14.0229,-0.79815 1.05312,0 -1.40723,1.04824 -0.35999,1.08403 1.05238,0.036 2.97062,-0.73431 4.01549,-0.66267 1.051,0.0721 3.34006,-0.53388 4.38187,-0.42621 1.04794,0.1083 -4.48156,2.41285 -3.44455,2.55669 1.04385,0.14479 2.02496,0.0748 3.05608,0.25513 1.03819,0.18153 10.30832,-5.18409 11.3319,-4.96708 1.03162,0.21872 2.15222,7.48671 3.16727,7.74095 1.02301,0.25624 1.90635,-4.83497 2.91076,-4.54319 1.01316,0.29432 -5.34368,3.91059 -4.35127,4.24053 1.00117,0.33285 9.37825,3.48499 10.35644,3.85353 0.98779,0.37215 -4.01585,-3.48156 -3.05341,-3.07359 0.97188,0.41196 5.73814,-0.82096 6.68218,-0.37308 0.954,0.45261 -3.05683,0.73008 -2.13331,1.21875 0.93351,0.49395 2.7567,7.5225 3.65696,8.05266 0.90999,0.53588 0.0369,-2.8595 0.91078,-2.28727 0.88328,0.5784 3.61536,-0.86148 4.45947,-0.24663 0.70243,0.51165 0.83192,3.08305 1.49975,3.61456 0.67967,0.54093 -0.0474,5.27821 0.59585,5.83872 0.655,0.57072 4.59416,-5.27348 5.21082,-4.68351 0.62761,0.60044 0.54013,7.73919 1.1274,8.35845 0.59757,0.63013 1.72442,-0.90203 2.27957,-0.25357 0.56499,0.65996 -0.88775,-3.34898 -0.3674,-2.67126 0.52856,0.68841 8.64234,7.38308 9.1241,8.08853 0.48935,0.71656 1.51826,-7.44121 1.95858,-6.70842 0.44662,0.74329 -3.86281,5.43906 -3.46744,6.19765 0.40041,0.76827 -3.38674,5.96796 -3.03973,6.75046 0.35076,0.79096 1.56983,-6.10364 1.86516,-5.29966 0.29824,0.81188 4.92456,1.37072 5.16539,2.19432 0.24238,0.82889 -0.64612,9.40415 -0.46279,10.24333 0.18405,0.84247 2.31454,0.46266 2.43816,1.31387 0.12374,0.85205 1.80805,-4.92456 1.87032,-4.06537 0.0621,0.85752 -4.55332,4.43484 -3.69208,4.49034 0,0 1.29459,-0.36572 1.43907,0.0927 0.71266,2.26134 -7.02413,2.58494 -5.55333,4.44459 1.6026,2.02628 3.65845,-5.59779 6.10655,-4.77258 1.7303,0.58326 2.73462,4.05888 1.39323,5.29775 -1.29578,1.19673 -3.6957,-0.55437 -4.99464,-1.74767 -1.4698,-1.35027 -4.1026,-4.34681 -2.44871,-5.46402 1.49773,-1.01172 2.38356,5.07302 3.76243,3.90448 0.18965,-0.16072 -0.41452,-0.35183 -0.44488,-0.59856 -0.12128,-0.9857 0.15686,-2.64777 1.14464,-2.75075 1.68811,-0.17599 3.8169,2.77872 2.88376,4.19643 -1.29492,1.96735 -4.90557,-2.57448 -6.93118,-1.37273 -0.8143,0.4831 -1.4983,2.01871 -0.85123,2.70991 1.79293,1.9152 6.36808,-4.14905 7.64774,-1.85884 1.17054,2.09491 -3.16249,6.4619 -5.11478,5.0664 -2.23592,-1.59824 4.95297,-5.0317 3.59407,-7.42066 -0.66276,-1.16516 -4.00673,-0.34303 -4.00673,-0.34303"
         id="ellipse843" />
      <path
         sodipodi:nodetypes="csssssssssssssssssssssssssssssssssssssssssssssssssssssssssssssssssssssssssc"
         inkscape:connector-curvature="0"
         style="opacity:1;fill:#660000;fill-opacity:0.9748744;stroke-width:0.12162673"
         d="m 624.13935,300.32292 c -0.12685,1.15854 4.54865,5.59323 4.36041,6.71768 -0.19271,1.15112 -4.52847,2.8978 -4.78263,4.00882 -0.26039,1.13828 -4.53059,-1.84499 -4.85237,-0.7535 -0.3307,1.12175 2.1584,5.36983 1.76623,6.43705 -0.40381,1.09893 -2.2498,-4.56478 -2.71512,-3.52923 -0.48056,1.06947 -2.25675,4.84809 -2.79886,5.84385 -0.5613,1.03103 7.21088,6.28769 6.58807,7.23291 -0.64699,0.98193 -8.10974,-6.4652 -8.81807,-5.58346 -0.73692,0.91732 1.71297,1.75331 0.9153,2.55367 -0.83107,0.83386 -0.0383,8.62458 -0.92891,9.32183 -0.92491,0.72409 -5.41249,-1.98703 -6.39448,-1.42111 -1.01317,0.58389 -4.68391,2.51998 -5.74995,2.92358 -1.08507,0.41081 0.16879,3.65095 -0.96269,3.86231 -1.12707,0.21054 -3.84856,-2.96624 -5.0133,-2.96624 -1.16474,0 2.81885,3.35671 1.69178,3.14617 -1.13148,-0.21137 -4.36811,-7.04193 -5.45319,-7.45274 -1.06604,-0.4036 -6.3204,3.59016 -7.33356,3.00627 -0.982,-0.56592 0.55072,-4.09537 -0.37419,-4.81946 -0.89064,-0.69725 -5.28623,-0.7107 -6.1173,-1.54456 -0.79767,-0.80036 2.54237,-2.78738 1.80545,-3.7047 -0.70834,-0.88174 -4.0873,0.95093 -4.73429,-0.031 -0.6228,-0.94523 -2.4778,0.77525 -3.03911,-0.25578 -0.5421,-0.99576 3.91196,-10.41303 3.4314,-11.4825 -0.46532,-1.03554 2.74693,3.86448 2.34312,2.76556 -0.39217,-1.06722 -9.39743,-7.00715 -9.72813,-8.1289 -0.32178,-1.09149 7.0307,4.86656 6.77031,3.72828 -0.25416,-1.11102 -2.41588,-4.03341 -2.60859,-5.18453 -0.18824,-1.12445 -5.57745,0.65032 -5.7043,-0.50822 -0.12422,-1.13449 6.03083,-7.60611 5.96807,-8.76937 -0.0615,-1.14077 0.50509,-4.05279 0.50509,-5.21754 0,-1.16475 -3.08536,-3.71338 -3.02381,-4.85415 0.0628,-1.16326 -2.02942,-0.46982 -1.9052,-1.60431 0.12685,-1.15855 2.84098,-2.58951 3.02923,-3.71396 0.1927,-1.15112 0.31152,-0.58258 0.56567,-1.69359 0.26039,-1.13829 2.00318,-1.09487 2.32496,-2.18636 0.3307,-1.12174 -2.45476,-3.55858 -2.06259,-4.6258 0.40382,-1.09893 0.49147,-0.0241 0.95678,-1.05969 0.48056,-1.06947 5.31753,-3.40659 5.85964,-4.40234 0.5613,-1.03103 3.80501,-4.39024 4.42782,-5.33546 0.64699,-0.98193 -3.8041,-1.2799 -3.09576,-2.16165 0.73692,-0.91732 5.75331,4.41258 6.55098,3.61222 0.83108,-0.83387 -6.85926,-1.86789 -5.96862,-2.56514 0.92491,-0.72408 4.60853,-5.68564 5.59052,-6.25157 1.01317,-0.58389 2.64367,-4.30453 3.70971,-4.70814 1.08508,-0.41081 2.04143,1.52728 3.17291,1.31592 1.12707,-0.21054 5.26314,-1.03251 6.42789,-1.03251 0.50432,0 -5.11419,5.68267 -4.6132,5.72385 0.501,0.0412 10.49234,-3.98312 10.98901,-3.9014 0.49522,0.0815 -2.25751,-1.47367 -1.76759,-1.3525 0.4861,0.12023 1.64358,-2.35676 2.12351,-2.19806 0.47473,0.15698 1.17561,6.03529 1.64335,6.22932 0.46139,0.1914 -0.5357,-2.26199 -0.082,-2.03511 0.4462,0.22314 -0.38678,0.54529 0.0338,0.82923 0.41257,0.27851 6.44681,0.84997 6.85015,1.15877 0.39553,0.30282 0.90572,6.60332 1.29164,6.93482 0.37734,0.32413 -3.12561,-7.31184 -2.75814,-6.96072 0.35967,0.34366 1.49812,4.15905 1.83,4.54432 0.32482,0.37707 0.73255,6.75343 1.04699,7.15316 0.30776,0.39122 -0.43437,-7.01314 -0.13709,-6.60054 0.29097,0.40383 0.23443,3.55755 0.51487,3.98155 0.35587,0.53803 5.89221,3.40508 6.22657,3.96857 0.32916,0.55474 -1.78407,-1.82063 -1.47616,-1.24265 0.30344,0.56957 -2.90384,1.82326 -2.62142,2.41401 0.27859,0.58273 -0.69227,0.0846 -0.4345,0.68661 0.25403,0.59328 0.86535,5.32948 1.09882,5.94022 0.23075,0.60362 0.0141,-2.60507 0.22439,-1.98562 0.20788,0.61224 7.723,0.40554 7.91061,1.03207 0.18542,0.61922 0.70273,0.777 0.86804,1.40905 0.16371,0.6259 -7.25628,5.90728 -7.1126,6.54465 0.14228,0.63118 8.42561,1.1251 8.54796,1.76645 0.12128,0.63573 -3.22719,-2.50542 -3.12578,-1.86074 0.10061,0.63967 -0.20679,2.91288 -0.12602,3.56034 0.0802,0.64243 -3.82624,11.95146 -4.3425,11.42783 -1.82695,-1.85302 0.79061,-9.28866 -0.16933,-7.08005"
         id="ellipse845" />
    </g>
    <g
       style="fill:#660000;fill-opacity:0.9748744;filter:url(#filter993)"
       id="g979"
       transform="matrix(0.25,0,0,0.25,358.92192,219.79898)">
      <path
         id="path973"
         d="m 468.03445,288.41678 c 0,1.93186 -1.78205,4.72706 -2.08105,6.60048 -0.30193,1.89181 2.18352,9.60331 1.59396,11.42296 -0.58625,1.80941 -2.03619,4.11744 -2.88974,5.84305 -0.83909,1.69636 -4.61771,2.46236 -5.69878,4.06583 -1.05444,1.56397 -6.95067,2.09264 -8.2201,3.55715 -1.23397,1.42361 0.80254,6.0177 -0.62057,7.33711 -1.38097,1.28036 -6.66122,-1.23749 -8.20748,-0.0646 -1.50089,1.13848 5.36571,-2.91291 3.72081,-1.88419 -1.59793,0.99934 -10.46697,11.71951 -12.19007,12.60746 -1.67663,0.86399 2.65352,-5.63962 0.86826,-4.88831 -1.74009,0.73231 -4.65891,0.31336 -6.49306,0.93196 -1.78991,0.60369 -4.82587,5.00375 -6.69687,5.49297 -1.82869,0.47815 -3.15285,0.62209 -5.05108,0.98512 -1.85788,0.35531 -9.38146,4.85418 -11.29854,5.09381 -1.8777,0.2347 -3.87381,-0.61408 -5.80133,-0.49544 -1.88931,0.11628 5.91833,-0.0869 3.98772,-0.0869 -1.9306,0 -6.29224,-6.78378 -8.18155,-6.90007 -1.92752,-0.11864 -8.01239,-0.76331 -9.8901,-0.99801 -1.91707,-0.23963 -2.02367,3.79428 -3.88155,3.43897 -1.89823,-0.36303 -3.9069,1.91056 -5.73559,1.43241 -1.871,-0.48921 -1.91549,-8.2934 -3.7054,-8.89708 -1.83415,-0.61861 -1.33956,7.13956 -3.07965,6.40726 -1.78526,-0.75132 -8.54031,-6.88901 -10.21694,-7.753 -1.7231,-0.88794 2.65297,-4.43643 1.05504,-5.43578 -1.6449,-1.02872 -7.54944,4.9735 -9.05032,3.83501 -1.54626,-1.1729 -5.47968,-4.7563 -6.86066,-6.03665 -1.42311,-1.31942 -4.39252,-6.25973 -5.62649,-7.68334 -1.26942,-1.46451 6.00089,4.57189 4.94645,3.00792 -1.08107,-1.60347 -2.82092,-12.28495 -3.66001,-13.98131 -0.85355,-1.72561 -3.78683,-3.34499 -4.37307,-5.15441 -0.58957,-1.81965 -6.15956,-2.28667 -6.4615,-4.17848 -0.29899,-1.87342 0.95806,2.26633 0.95806,0.33447 0,-0.86302 0.0431,-9.00662 0.10527,-9.86414 0.0623,-0.85919 0.3962,2.9915 0.51994,2.13946 0.12362,-0.85122 3.27929,-1.32186 3.46334,-2.16433 0.18333,-0.83918 -3.12097,-4.72321 -2.87859,-5.55211 0.24083,-0.82359 4.27806,0.71645 4.57629,-0.0954 0.29534,-0.80399 0.66673,-2.44142 1.01749,-3.23238 0.34701,-0.7825 -4.81337,1.05865 -4.41295,0.29037 0.39536,-0.75858 2.63505,-2.14465 3.08167,-2.88794 0.44031,-0.73279 1.90508,-1.73789 2.39443,-2.45445 0.48177,-0.70546 5.55677,-1.07304 6.08532,-1.76145 0.52036,-0.67773 -6.90278,-4.58528 -6.33779,-5.24524 0.55514,-0.64847 1.69199,-2.82877 2.28955,-3.45889 0.58727,-0.61927 5.77635,6.64841 6.40396,6.04798 0.61666,-0.58998 2.67108,-3.89359 3.32608,-4.46432 0.64327,-0.5605 2.72327,-7.51031 3.40294,-8.05124 0.66783,-0.53151 -0.64496,2.87701 0.0575,2.36536 0.84411,-0.61485 1.60615,-1.11152 2.48943,-1.68992 0.87385,-0.57222 -3.38006,2.12359 -2.47007,1.58771 0.90026,-0.53016 6.12779,-7.5393 7.06129,-8.03325 0.92352,-0.48867 2.568,6.6463 3.522,6.19369 0.94404,-0.44788 0.84229,-0.50844 1.81417,-0.9204 0.96243,-0.40797 4.66686,-9.72514 5.65465,-10.09729 0.9782,-0.36854 -5.24749,-1.17275 -4.24632,-1.5056 0.99242,-0.32994 9.05641,-0.67252 10.06957,-0.96684 1.00441,-0.29178 1.7411,7.27194 2.76411,7.01571 1.01505,-0.25424 3.63138,-2.46014 4.66299,-2.67886 1.02359,-0.21702 1.2702,-2.60171 2.30839,-2.78324 1.03112,-0.1803 -1.82027,-2.50859 -0.77642,-2.65337 1.037,-0.14384 5.36039,-0.77169 6.40833,-0.88 1.04181,-0.10766 0.43251,8.67061 1.48352,8.59855 1.04487,-0.0716 4.56698,-3.33518 5.61422,-3.29939 1.05238,0.036 1.22625,-5.21525 2.27111,-5.14361 1.05101,0.0721 4.06221,3.44872 5.10402,3.55638 1.04794,0.10831 6.83102,2.5936 7.86803,2.73744 1.04385,0.14479 -6.14034,-5.1563 -5.10922,-4.97601 1.03819,0.18153 8.25556,2.59616 9.27915,2.81318 1.03161,0.21872 2.13126,-1.90464 3.14631,-1.6504 1.02301,0.25623 2.58733,5.91573 3.59175,6.20751 1.01315,0.29432 -2.67679,-0.29904 -1.68437,0.0309 1.00117,0.33285 9.58834,3.79124 10.56653,4.15977 0.98779,0.37216 -6.55479,-8.13803 -5.59236,-7.73006 0.97188,0.41196 8.50711,10.3195 9.45115,10.76739 0.954,0.4526 -4.60059,-4.57319 -3.67706,-4.08453 0.9335,0.49395 7.37484,1.7351 8.2751,2.26525 0.90999,0.53589 -2.42797,5.78047 -1.55412,6.3527 0.88328,0.5784 2.68874,-2.16849 3.53285,-1.55363 0.70243,0.51165 -2.15767,2.99326 -1.48985,3.52476 0.67968,0.54093 7.86755,-6.36024 8.51082,-5.79973 0.655,0.57072 4.41015,1.19557 5.02682,1.78554 0.6276,0.60044 -3.9014,8.79087 -3.31413,9.41014 0.59757,0.63013 -1.59512,1.43434 -1.03997,2.0828 0.56499,0.65996 6.21742,-6.54096 6.73777,-5.86323 0.52855,0.68841 -0.66698,9.96913 -0.18522,10.67458 0.48936,0.71656 5.48061,-7.71966 5.92092,-6.98687 0.44662,0.74329 -6.14401,9.98282 -5.74865,10.7414 0.40042,0.76828 0.20957,-6.18525 0.55658,-5.40275 0.35077,0.79096 -1.29009,9.15916 -0.99475,9.96315 0.29823,0.81187 3.37986,-4.95014 3.62069,-4.12654 0.24238,0.8289 -0.85221,-0.0463 -0.66887,0.79288 0.18405,0.84247 3.94107,10.272 4.06469,11.12322 0.12374,0.85204 4.24967,2.65111 4.31194,3.51031 0.0622,0.85751 -7.73124,-5.59332 -7.73124,-4.7303 0,3.02118 -1.78652,2.39924 -1.13895,3.40615 1.32784,2.06468 6.35813,3.02913 7.32381,0.77225 1.12423,-2.62743 -7.61032,-2.89764 -6.53768,-5.54655 0.28318,-0.69931 1.7236,-0.38292 2.2585,0.14916 1.61174,1.6032 -1.69815,6.17048 0.4855,6.80264 0.1845,0.0534 0.15043,-0.44666 0.34173,-0.46396 0.8291,-0.075 1.18586,2.25407 1.81799,1.71237 2.63493,-2.25804 -8.55247,-6.35267 -5.89302,-8.58179 1.83875,-1.54122 4.8959,2.66064 5.13041,5.04839 0.0358,0.36445 -0.86225,0.63516 -0.61818,0.90816 0.87701,0.98096 2.61398,-2.82468 3.49067,-1.84343 1.37321,1.53699 -4.9504,3.66214 -3.48267,5.10913 1.1068,1.09116 4.17032,-1.16775 3.81498,-2.68082 -0.42612,-1.81451 -4.95295,0.93067 -5.52781,-0.84234 -0.34714,-1.07066 3.05587,-1.45266 2.40452,-2.37057 -1.08844,-1.53384 -5.06583,2.4847 -5.06583,2.4847"
         style="opacity:1;fill:#660000;fill-opacity:0.9748744;stroke-width:0.20423284"
         inkscape:connector-curvature="0"
         sodipodi:nodetypes="csssssssssssssssssssssssssssssssssssssssssssssssssssssssssssssssssssssssssssssssssssssssssssssssssssssssssssssc" />
      <path
         id="path975"
         d="m 579.63348,293.59685 c 0,1.93186 6.59544,2.09632 6.29645,3.96974 -0.30194,1.89181 -3.16345,4.68698 -3.75301,6.50663 -0.58625,1.80941 -5.11174,2.68916 -5.96529,4.41477 -0.83909,1.69636 4.16329,8.16378 3.08222,9.76724 -1.05444,1.56398 -5.41688,-5.53062 -6.68631,-4.06611 -1.23397,1.42361 -2.73547,6.75077 -4.15858,8.07019 -1.38098,1.28035 -2.39818,-1.39338 -3.94444,-0.22047 -1.50089,1.13849 -8.48147,3.84641 -10.12637,4.87513 -1.59794,0.99935 -0.11471,2.58337 -1.83781,3.47132 -1.67663,0.86399 -1.45304,8.20158 -3.2383,8.95289 -1.74009,0.73231 -3.92962,-0.42372 -5.76377,0.19488 -1.78991,0.60368 -6.66847,0.53165 -8.53947,1.02086 -1.82869,0.47815 2.08385,0.29611 0.18562,0.65913 -1.85788,0.35532 -7.12772,-4.75201 -9.04479,-4.51238 -1.87771,0.2347 -0.0224,0.50911 -1.94989,0.62774 -1.88931,0.11629 -6.28469,7.53843 -8.21529,7.53843 -1.93061,0 -1.76881,-4.2085 -3.65812,-4.32479 -1.92752,-0.11864 -11.035,3.79887 -12.91271,3.56417 -1.91707,-0.23962 -0.32969,-4.77089 -2.18757,-5.1262 -1.89823,-0.36303 -5.48913,3.97799 -7.31782,3.49984 -1.871,-0.48921 -4.89706,0.22272 -6.68698,-0.38097 -1.83415,-0.6186 -1.19902,-5.50088 -2.93911,-6.23319 -1.78526,-0.75131 1.92321,-6.21132 0.24658,-7.07531 -1.72311,-0.88794 -12.6846,1.10013 -14.28254,0.10079 -1.6449,-1.02872 -3.37154,-1.19338 -4.87242,-2.33187 -1.54627,-1.17291 0.35683,-7.07079 -1.02414,-8.35114 -1.42311,-1.31942 -1.57243,-2.40343 -2.8064,-3.82704 -1.26942,-1.4645 -1.42936,6.6476 -2.4838,5.08363 -1.08107,-1.60347 -3.14106,-6.08842 -3.98015,-7.78479 -0.85355,-1.7256 -1.07428,-4.67691 -1.66053,-6.48632 -0.58956,-1.81965 -6.33897,-2.09013 -6.6409,-3.98194 -0.299,-1.87342 9.21162,-4.56596 9.21162,-6.49782 0,-1.93186 -2.22854,-2.08553 -1.92955,-3.95896 0.30193,-1.89181 -5.55208,-11.90851 -4.96252,-13.72816 0.58625,-1.80942 8.46246,3.25279 9.31601,1.52719 0.83909,-1.69637 -1.73961,-9.99962 -0.65854,-11.60309 1.05444,-1.56397 6.12379,4.67724 7.39322,3.21273 1.23397,-1.42361 -4.55922,-10.94682 -3.13611,-12.26624 1.38098,-1.28035 6.59802,5.93589 8.14428,4.76298 1.50088,-1.13848 -0.71583,-8.14571 0.92907,-9.17443 1.59793,-0.99935 10.715,4.57539 12.43811,3.68744 1.67663,-0.86399 3.38623,-3.02279 5.17149,-3.77411 1.74009,-0.7323 -3.48029,-6.12273 -1.64614,-6.74133 1.78991,-0.60369 8.06267,-0.58185 9.93367,-1.07107 1.82869,-0.47815 7.26611,-0.48694 9.16434,-0.84997 1.85788,-0.35531 -1.01939,4.65929 0.89768,4.41966 1.8777,-0.2347 -1.00262,-3.84083 0.9249,-3.95947 1.88931,-0.11628 12.09229,-0.79815 14.0229,-0.79815 1.05312,0 -1.40723,1.04824 -0.35999,1.08403 1.05238,0.036 2.97062,-0.73431 4.01549,-0.66267 1.051,0.0721 3.34006,-0.53388 4.38187,-0.42621 1.04794,0.1083 -4.48156,2.41285 -3.44455,2.55669 1.04385,0.14479 2.02496,0.0748 3.05608,0.25513 1.03819,0.18153 10.30832,-5.18409 11.3319,-4.96708 1.03162,0.21872 2.15222,7.48671 3.16727,7.74095 1.02301,0.25624 1.90635,-4.83497 2.91076,-4.54319 1.01316,0.29432 -5.34368,3.91059 -4.35127,4.24053 1.00117,0.33285 9.37825,3.48499 10.35644,3.85353 0.98779,0.37215 -4.01585,-3.48156 -3.05341,-3.07359 0.97188,0.41196 5.73814,-0.82096 6.68218,-0.37308 0.954,0.45261 -3.05683,0.73008 -2.13331,1.21875 0.93351,0.49395 2.7567,7.5225 3.65696,8.05266 0.90999,0.53588 0.0369,-2.8595 0.91078,-2.28727 0.88328,0.5784 3.61536,-0.86148 4.45947,-0.24663 0.70243,0.51165 0.83192,3.08305 1.49975,3.61456 0.67967,0.54093 -0.0474,5.27821 0.59585,5.83872 0.655,0.57072 4.59416,-5.27348 5.21082,-4.68351 0.62761,0.60044 0.54013,7.73919 1.1274,8.35845 0.59757,0.63013 1.72442,-0.90203 2.27957,-0.25357 0.56499,0.65996 -0.88775,-3.34898 -0.3674,-2.67126 0.52856,0.68841 8.64234,7.38308 9.1241,8.08853 0.48935,0.71656 1.51826,-7.44121 1.95858,-6.70842 0.44662,0.74329 -3.86281,5.43906 -3.46744,6.19765 0.40041,0.76827 -3.38674,5.96796 -3.03973,6.75046 0.35076,0.79096 1.56983,-6.10364 1.86516,-5.29966 0.29824,0.81188 4.92456,1.37072 5.16539,2.19432 0.24238,0.82889 -0.64612,9.40415 -0.46279,10.24333 0.18405,0.84247 2.31454,0.46266 2.43816,1.31387 0.12374,0.85205 1.80805,-4.92456 1.87032,-4.06537 0.0621,0.85752 -4.55332,4.43484 -3.69208,4.49034 0,0 1.29459,-0.36572 1.43907,0.0927 0.71266,2.26134 -7.02413,2.58494 -5.55333,4.44459 1.6026,2.02628 3.65845,-5.59779 6.10655,-4.77258 1.7303,0.58326 2.73462,4.05888 1.39323,5.29775 -1.29578,1.19673 -3.6957,-0.55437 -4.99464,-1.74767 -1.4698,-1.35027 -4.1026,-4.34681 -2.44871,-5.46402 1.49773,-1.01172 2.38356,5.07302 3.76243,3.90448 0.18965,-0.16072 -0.41452,-0.35183 -0.44488,-0.59856 -0.12128,-0.9857 0.15686,-2.64777 1.14464,-2.75075 1.68811,-0.17599 3.8169,2.77872 2.88376,4.19643 -1.29492,1.96735 -4.90557,-2.57448 -6.93118,-1.37273 -0.8143,0.4831 -1.4983,2.01871 -0.85123,2.70991 1.79293,1.9152 6.36808,-4.14905 7.64774,-1.85884 1.17054,2.09491 -3.16249,6.4619 -5.11478,5.0664 -2.23592,-1.59824 4.95297,-5.0317 3.59407,-7.42066 -0.66276,-1.16516 -4.00673,-0.34303 -4.00673,-0.34303"
         style="opacity:1;fill:#660000;fill-opacity:0.9748744;stroke-width:0.20423284"
         inkscape:connector-curvature="0"
         sodipodi:nodetypes="csssssssssssssssssssssssssssssssssssssssssssssssssssssssssssssssssssssssssssssssssssssssssssssssc" />
      <path
         id="path977"
         d="m 624.13935,300.32292 c -0.12685,1.15854 4.54865,5.59323 4.36041,6.71768 -0.19271,1.15112 -4.52847,2.8978 -4.78263,4.00882 -0.26039,1.13828 -4.53059,-1.84499 -4.85237,-0.7535 -0.3307,1.12175 2.1584,5.36983 1.76623,6.43705 -0.40381,1.09893 -2.2498,-4.56478 -2.71512,-3.52923 -0.48056,1.06947 -2.25675,4.84809 -2.79886,5.84385 -0.5613,1.03103 7.21088,6.28769 6.58807,7.23291 -0.64699,0.98193 -8.10974,-6.4652 -8.81807,-5.58346 -0.73692,0.91732 1.71297,1.75331 0.9153,2.55367 -0.83107,0.83386 -0.0383,8.62458 -0.92891,9.32183 -0.92491,0.72409 -5.41249,-1.98703 -6.39448,-1.42111 -1.01317,0.58389 -4.68391,2.51998 -5.74995,2.92358 -1.08507,0.41081 0.16879,3.65095 -0.96269,3.86231 -1.12707,0.21054 -3.84856,-2.96624 -5.0133,-2.96624 -1.16474,0 2.81885,3.35671 1.69178,3.14617 -1.13148,-0.21137 -4.36811,-7.04193 -5.45319,-7.45274 -1.06604,-0.4036 -6.3204,3.59016 -7.33356,3.00627 -0.982,-0.56592 0.55072,-4.09537 -0.37419,-4.81946 -0.89064,-0.69725 -5.28623,-0.7107 -6.1173,-1.54456 -0.79767,-0.80036 2.54237,-2.78738 1.80545,-3.7047 -0.70834,-0.88174 -4.0873,0.95093 -4.73429,-0.031 -0.6228,-0.94523 -2.4778,0.77525 -3.03911,-0.25578 -0.5421,-0.99576 3.91196,-10.41303 3.4314,-11.4825 -0.46532,-1.03554 2.74693,3.86448 2.34312,2.76556 -0.39217,-1.06722 -9.39743,-7.00715 -9.72813,-8.1289 -0.32178,-1.09149 7.0307,4.86656 6.77031,3.72828 -0.25416,-1.11102 -2.41588,-4.03341 -2.60859,-5.18453 -0.18824,-1.12445 -5.57745,0.65032 -5.7043,-0.50822 -0.12422,-1.13449 6.03083,-7.60611 5.96807,-8.76937 -0.0615,-1.14077 0.50509,-4.05279 0.50509,-5.21754 0,-1.16475 -3.08536,-3.71338 -3.02381,-4.85415 0.0628,-1.16326 -2.02942,-0.46982 -1.9052,-1.60431 0.12685,-1.15855 2.84098,-2.58951 3.02923,-3.71396 0.1927,-1.15112 0.31152,-0.58258 0.56567,-1.69359 0.26039,-1.13829 2.00318,-1.09487 2.32496,-2.18636 0.3307,-1.12174 -2.45476,-3.55858 -2.06259,-4.6258 0.40382,-1.09893 0.49147,-0.0241 0.95678,-1.05969 0.48056,-1.06947 5.31753,-3.40659 5.85964,-4.40234 0.5613,-1.03103 3.80501,-4.39024 4.42782,-5.33546 0.64699,-0.98193 -3.8041,-1.2799 -3.09576,-2.16165 0.73692,-0.91732 5.75331,4.41258 6.55098,3.61222 0.83108,-0.83387 -6.85926,-1.86789 -5.96862,-2.56514 0.92491,-0.72408 4.60853,-5.68564 5.59052,-6.25157 1.01317,-0.58389 2.64367,-4.30453 3.70971,-4.70814 1.08508,-0.41081 2.04143,1.52728 3.17291,1.31592 1.12707,-0.21054 5.26314,-1.03251 6.42789,-1.03251 0.50432,0 -5.11419,5.68267 -4.6132,5.72385 0.501,0.0412 10.49234,-3.98312 10.98901,-3.9014 0.49522,0.0815 -2.25751,-1.47367 -1.76759,-1.3525 0.4861,0.12023 1.64358,-2.35676 2.12351,-2.19806 0.47473,0.15698 1.17561,6.03529 1.64335,6.22932 0.46139,0.1914 -0.5357,-2.26199 -0.082,-2.03511 0.4462,0.22314 -0.38678,0.54529 0.0338,0.82923 0.41257,0.27851 6.44681,0.84997 6.85015,1.15877 0.39553,0.30282 0.90572,6.60332 1.29164,6.93482 0.37734,0.32413 -3.12561,-7.31184 -2.75814,-6.96072 0.35967,0.34366 1.49812,4.15905 1.83,4.54432 0.32482,0.37707 0.73255,6.75343 1.04699,7.15316 0.30776,0.39122 -0.43437,-7.01314 -0.13709,-6.60054 0.29097,0.40383 0.23443,3.55755 0.51487,3.98155 0.35587,0.53803 5.89221,3.40508 6.22657,3.96857 0.32916,0.55474 -1.78407,-1.82063 -1.47616,-1.24265 0.30344,0.56957 -2.90384,1.82326 -2.62142,2.41401 0.27859,0.58273 -0.69227,0.0846 -0.4345,0.68661 0.25403,0.59328 0.86535,5.32948 1.09882,5.94022 0.23075,0.60362 0.0141,-2.60507 0.22439,-1.98562 0.20788,0.61224 7.723,0.40554 7.91061,1.03207 0.18542,0.61922 0.70273,0.777 0.86804,1.40905 0.16371,0.6259 -7.25628,5.90728 -7.1126,6.54465 0.14228,0.63118 8.42561,1.1251 8.54796,1.76645 0.12128,0.63573 -3.22719,-2.50542 -3.12578,-1.86074 0.10061,0.63967 -0.20679,2.91288 -0.12602,3.56034 0.0802,0.64243 -3.82624,11.95146 -4.3425,11.42783 -1.82695,-1.85302 0.79061,-9.28866 -0.16933,-7.08005"
         style="opacity:1;fill:#660000;fill-opacity:0.9748744;stroke-width:0.12162673"
         inkscape:connector-curvature="0"
         sodipodi:nodetypes="csssssssssssssssssssssssssssssssssssssssssssssssssssssssssssssssssssssssssc" />
    </g>
  </g>
  <g
     inkscape:label="Layer 1"
     inkscape:groupmode="layer"
     id="layer1"
     transform="translate(-365.78255,49.304826)"
     style="display:inline">
    <g
       transform="matrix(0.25,0,0,0.25,358.728,-7.4282451)"
       id="g832"
       style="fill:#ececec">
      <path
         d="m 450.83474,-22.158508 h -44.87357 v -6.979916 q 0,-6.600056 -1.27907,-8.261941 -1.27905,-1.661885 -6.07551,-1.661885 -4.15693,0 -5.64917,1.424473 -1.49224,1.424472 -1.49224,7.312292 V 6.5683558 q 0,5.1755842 1.49224,6.8374682 1.49224,1.614403 5.96893,1.614403 4.90305,0 6.60846,-1.851815 1.812,-1.851814 1.812,-7.2173277 v -9.1166246 h -9.05998 V -14.846216 h 52.54791 V 26.416008 H 422.5889 l -4.15693,-5.507962 q -4.58329,3.561182 -11.61809,5.365514 -6.92824,1.75685 -16.41458,1.75685 -11.29832,0 -21.21101,-2.421604 -9.8061,-2.469085 -14.92232,-6.07775 -5.11624,-3.608664 -6.39529,-7.549704 -1.27906,-3.9885235 -1.27906,-11.91808779 V -22.77578 q 0,-11.015922 2.6647,-16.001576 2.6647,-4.985654 15.24209,-9.116624 12.68399,-4.178453 32.72254,-4.178453 19.71878,0 32.72253,3.608663 13.00373,3.608664 16.9475,8.594319 3.94376,4.938172 3.94376,14.387173 z"
         style="font-style:normal;font-variant:normal;font-weight:normal;font-stretch:normal;font-size:145.69700623px;line-height:1.25;font-family:Impact;-inkscape-font-specification:Impact;letter-spacing:0px;word-spacing:0px;fill:#ececec;fill-opacity:1;stroke:none;stroke-width:3.64242506"
         id="path819"
         inkscape:connector-curvature="0" />
      <path
         d="m 565.34799,-5.4446965 q 0,11.5857105 -1.27905,16.4289175 -1.17248,4.795724 -7.67434,8.784248 -6.39528,3.988523 -17.37386,6.125232 -10.97856,2.136709 -25.58112,2.136709 -13.85645,0 -24.94162,-1.994262 -10.97856,-2.041744 -17.6936,-6.07775 -6.71505,-4.036006 -7.9941,-8.784247 -1.27907,-4.7482424 -1.27907,-16.6188475 V -18.597327 q 0,-11.585711 1.17247,-16.381435 1.27906,-4.843207 7.67434,-8.83173 6.50187,-3.988524 17.48045,-6.125232 10.97856,-2.136709 25.58113,-2.136709 13.85644,0 24.83501,2.041744 11.08515,1.994262 17.8002,6.030267 6.71505,4.036006 7.99411,8.784248 1.27905,4.748242 1.27905,16.618847 z M 520.47443,-30.705344 q 0,-5.365514 -1.38566,-6.837469 -1.27905,-1.519437 -5.43598,-1.519437 -3.51741,0 -5.43599,1.234543 -1.812,1.18706 -1.812,7.122363 V 5.1913656 q 0,6.6950214 1.17247,8.2619414 1.27906,1.56692 5.75575,1.56692 4.58329,0 5.86235,-1.804332 1.27906,-1.804332 1.27906,-8.5943185 z"
         style="font-style:normal;font-variant:normal;font-weight:normal;font-stretch:normal;font-size:145.69700623px;line-height:1.25;font-family:Impact;-inkscape-font-specification:Impact;letter-spacing:0px;word-spacing:0px;fill:#ececec;fill-opacity:1;stroke:none;stroke-width:3.64242506"
         id="path821"
         inkscape:connector-curvature="0" />
      <path
         sodipodi:nodetypes="cccccccccc"
         d="m 614.24975,-44.340769 -5.91521,48.6692833 h -27.96286 l 6.63873,-48.6692833 z m -6.07224,51.7036274 -1.7798,12.9358886 h -28.09374 l 1.7798,-12.9358886 z"
         style="font-style:normal;font-variant:normal;font-weight:normal;font-stretch:normal;font-size:145.69700623px;line-height:1.25;font-family:Impact;-inkscape-font-specification:Impact;letter-spacing:0px;word-spacing:0px;fill:#ececec;fill-opacity:1;stroke:none;stroke-width:3.06273222"
         id="path823"
         inkscape:connector-curvature="0" />
    </g>
  </g>
</svg>
