<?xml version="1.0" encoding="UTF-8" standalone="no"?>
<!-- Created with Inkscape (http://www.inkscape.org/) -->

<svg
   xmlns:dc="http://purl.org/dc/elements/1.1/"
   xmlns:cc="http://creativecommons.org/ns#"
   xmlns:rdf="http://www.w3.org/1999/02/22-rdf-syntax-ns#"
   xmlns:svg="http://www.w3.org/2000/svg"
   xmlns="http://www.w3.org/2000/svg"
   xmlns:sodipodi="http://sodipodi.sourceforge.net/DTD/sodipodi-0.dtd"
   xmlns:inkscape="http://www.inkscape.org/namespaces/inkscape"
   version="1.1"
   id="svg2"
   width="32"
   height="32"
   viewBox="0 0 32.000001 31.999999"
   sodipodi:docname="powerup_bottom.svg"
   inkscape:export-filename="C:\Users\Adam\Development\Bomb\assets\images\powerup_bottom.png"
   inkscape:export-xdpi="96"
   inkscape:export-ydpi="96"
   inkscape:version="0.92.4 (5da689c313, 2019-01-14)">
  <metadata
     id="metadata8">
    <rdf:RDF>
      <cc:Work
         rdf:about="">
        <dc:format>image/svg+xml</dc:format>
        <dc:type
           rdf:resource="http://purl.org/dc/dcmitype/StillImage" />
        <dc:title></dc:title>
      </cc:Work>
    </rdf:RDF>
  </metadata>
  <defs
     id="defs6" />
  <sodipodi:namedview
     pagecolor="#ffffff"
     bordercolor="#666666"
     borderopacity="1"
     objecttolerance="10"
     gridtolerance="10"
     guidetolerance="10"
     inkscape:pageopacity="0"
     inkscape:pageshadow="2"
     inkscape:window-width="1920"
     inkscape:window-height="1017"
     id="namedview4"
     showgrid="false"
     inkscape:zoom="11.174242"
     inkscape:cx="-18.63728"
     inkscape:cy="5.6842259"
     inkscape:window-x="-32000"
     inkscape:window-y="-32000"
     inkscape:window-maximized="0"
     inkscape:current-layer="svg2" />
  <g
     id="g4531"
     style="fill:#ffffff;fill-opacity:1"
     inkscape:export-xdpi="96"
     inkscape:export-ydpi="96"
     transform="matrix(3.3939109,0,0,3.3939109,-1.377221,-2.6802057)">
    <path
       inkscape:connector-curvature="0"
       id="path4520"
       d="M 5.1191406,7.5488281 A 8.7254238,2.9084747 0 0 0 -3.6054688,10.457031 8.7254238,2.9084747 0 0 0 5.1191406,13.365234 8.7254238,2.9084747 0 0 0 13.845703,10.457031 8.7254238,2.9084747 0 0 0 5.1191406,7.5488281 Z m 0,0.4921875 A 7.2488136,2.4162714 0 0 1 12.369141,10.457031 7.2488136,2.4162714 0 0 1 5.1191406,12.873047 7.2488136,2.4162714 0 0 1 -2.1289062,10.457031 7.2488136,2.4162714 0 0 1 5.1191406,8.0410156 Z"
       style="fill:#ffffff;fill-opacity:1" />
    <path
       inkscape:connector-curvature="0"
       style="fill:#ffffff;fill-opacity:1;stroke-width:0.59996265"
       d="M 5.1195312,8.712218 A 5.2349282,1.7449761 0 0 0 -0.11490834,10.457031 5.2349282,1.7449761 0 0 0 5.1195312,12.201844 5.2349282,1.7449761 0 0 0 10.355143,10.457031 5.2349282,1.7449761 0 0 0 5.1195312,8.712218 Z m 0,0.2952941 A 4.3490173,1.4496725 0 0 1 9.4692605,10.457031 4.3490173,1.4496725 0 0 1 5.1195312,11.90655 4.3490173,1.4496725 0 0 1 0.77097403,10.457031 4.3490173,1.4496725 0 0 1 5.1195312,9.0075121 Z"
       id="path4527" />
  </g>
</svg>
